<svg id="Layer_1" enable-background="new 0 0 512 512" height="512" viewBox="0 0 512 512" width="512" xmlns="http://www.w3.org/2000/svg"><g><path d="m466 87.987h-116.058c15.216-21.824 13.112-52.143-6.344-71.598-21.834-21.835-57.361-21.835-79.195 0-2.451 2.451-5.378 6-8.402 12.003-3.025-6.003-5.951-9.552-8.402-12.003-21.834-21.835-57.361-21.835-79.195 0-19.455 19.455-21.559 49.773-6.344 71.598h-116.06c-25.405 0-46 20.595-46 46v36c0 25.405 20.595 46 46 46h157c2.761 0 5-2.239 5-5v-97.82c3.931.893 8.233 1.759 12.975 2.583 6.93 1.205 13.52 2.101 19.025 2.75v92.486c0 2.761 2.239 5 5 5h22c2.761 0 5-2.239 5-5v-92.486c5.505-.649 12.095-1.546 19.025-2.75 4.742-.824 9.044-1.69 12.975-2.583v97.82c0 2.761 2.239 5 5 5h157c25.405 0 46-20.595 46-46v-36c0-25.405-20.595-46-46-46zm-239.543-3.764c-28.425-4.942-34.794-10.633-35.427-11.266-9.357-9.358-9.357-24.583 0-33.941 4.679-4.679 10.825-7.018 16.971-7.018s12.292 2.339 16.971 7.018c.629.629 6.288 6.96 11.221 35.169.718 4.106 1.319 8.114 1.816 11.811-3.613-.487-7.529-1.073-11.552-1.773zm59.344-.045c-4.106.718-8.113 1.319-11.81 1.816.486-3.612 1.073-7.528 1.772-11.551 4.942-28.425 10.633-34.794 11.266-35.427 4.679-4.679 10.825-7.018 16.971-7.018s12.292 2.339 16.971 7.018c9.357 9.358 9.357 24.583 0 33.941-.629.63-6.96 6.288-35.17 11.221z"/><path d="m240 252.987v254c0 2.761 2.239 5 5 5h22c2.761 0 5-2.239 5-5v-254c0-2.761-2.239-5-5-5h-22c-2.761 0-5 2.239-5 5z"/><path d="m203 247.987h-155c-8.837 0-16 7.163-16 16v202c0 25.405 20.595 46 46 46h125c2.761 0 5-2.239 5-5v-254c0-2.761-2.239-5-5-5z"/><path d="m464 247.987h-155c-2.761 0-5 2.239-5 5v254c0 2.761 2.239 5 5 5h125c25.405 0 46-20.595 46-46v-202c0-8.837-7.163-16-16-16z"/></g></svg>