<svg xmlns="http://www.w3.org/2000/svg" xmlns:xlink="http://www.w3.org/1999/xlink" width="32" height="32" viewBox="0 0 32 32"><defs><linearGradient id="a"><stop offset="0" stop-color="#000092"/><stop offset="1" stop-color="#ff00f3"/></linearGradient><linearGradient id="b" x1="826.493" x2="850.493" y1="1576.869" y2="1576.869" gradientUnits="userSpaceOnUse" xlink:href="#a"/></defs><path fill="url(#b)" d="m 835.9928,1562.8693 c -1.63972,0 -3,1.2874 -3,2.8993 0,0.7291 0.28764,1.383 0.74414,1.8902 l -5.74414,0 c -0.82236,0 -1.5,0.6838 -1.5,1.5137 l 0,4.0366 c 0,0.6527 0.421,1.2087 1,1.4191 l 0,14.278 c 0,1.0888 0.91054,1.9631 2,1.9631 l 21,0 c 1.08945,0 2,-0.8743 2,-1.9631 l 0,-14.278 c 0.57835,-0.2107 1,-0.7669 1,-1.4191 l 0,-4.0366 c 0,-0.8299 -0.67765,-1.5137 -1.5,-1.5137 l -5.74414,0 c 0.4563,-0.5071 0.74414,-1.1613 0.74414,-1.8902 0,-1.6119 -1.36029,-2.8993 -3,-2.8993 l -0.29883,0 c -1.49648,0 -2.48417,0.7491 -3.04687,1.7522 -0.28037,0.4998 -0.48246,1.055 -0.6543,1.632 -0.17184,-0.577 -0.37197,-1.1322 -0.65234,-1.632 -0.5627,-1.0031 -1.55041,-1.7522 -3.04688,-1.7522 l -0.30078,0 z m 0,1.0091 0.30078,0 c 1.20352,0 1.73095,0.4487 2.17578,1.2417 0.35497,0.6329 0.57822,1.5926 0.83203,2.5387 l -0.27929,0 -3.0293,0 c -1.13031,0 -2,-0.8486 -2,-1.8902 0,-1.0414 0.86969,-1.8902 2,-1.8902 z m 7.70117,0 0.29883,0 c 1.1303,0 2,0.8488 2,1.8902 0,1.0416 -0.8697,1.8902 -2,1.8902 l -3.06445,0 -0.24219,0 c 0.2538,-0.946 0.47513,-1.9059 0.83008,-2.5387 0.44484,-0.793 0.9742,-1.2417 2.17773,-1.2417 z m -15.70117,4.7895 8,0 0.2168,0 c -1.03773,0.8318 -1.71679,2.0947 -1.7168,3.5262 a 0.50005,0.50462687 0 1 0 1,0 c 10e-6,-1.951 1.57165,-3.5262 3.5293,-3.5262 l 0.4707,0 0,5.0458 -11.5,0 c -0.28567,0 -0.5,-0.2162 -0.5,-0.5046 l 0,-4.0366 c 0,-0.2884 0.21433,-0.5046 0.5,-0.5046 z m 12.5,0 0.4707,0 c 1.95765,0 3.52929,1.5752 3.5293,3.5262 a 0.50005,0.50462687 0 1 0 1,0 c -10e-6,-1.4315 -0.68102,-2.6944 -1.71875,-3.5262 l 0.21875,0 8,0 c 0.28566,0 0.5,0.2162 0.5,0.5046 l 0,4.0366 c 0,0.2884 -0.21434,0.5046 -0.5,0.5046 l -11.5,0 0,-5.0458 z m -12,6.055 11,0 0,15.1372 -10,0 c -0.57259,0 -1,-0.4276 -1,-0.9539 l 0,-14.1833 z m 12,0 11,0 0,14.1833 c 0,0.5263 -0.42742,0.9539 -1,0.9539 l -10,0 0,-15.1372 z" color="#000" font-family="sans-serif" font-weight="400" overflow="visible" transform="translate(-823.493 -1560.87)" white-space="normal" style="line-height:normal;text-indent:0;text-align:start;text-decoration-line:none;text-decoration-style:solid;text-decoration-color:#000;text-transform:none;block-progression:tb;isolation:auto;mix-blend-mode:normal"/></svg>